<mxfile host="app.diagrams.net" agent="Mozilla/5.0 (Windows NT 10.0; Win64; x64) AppleWebKit/537.36 (KHTML, like Gecko) Chrome/132.0.0.0 Safari/537.36" version="26.0.14">
  <diagram name="PÃ¡gina-1" id="G9lPYt33RIxT6Z4aHreh">
    <mxGraphModel dx="1063" dy="1005" grid="1" gridSize="10" guides="1" tooltips="1" connect="1" arrows="1" fold="1" page="1" pageScale="1" pageWidth="827" pageHeight="1169" math="0" shadow="0">
      <root>
        <mxCell id="0" />
        <mxCell id="1" parent="0" />
        <mxCell id="y6a2IPHicbjTbBPUv8F9-6" value="" style="verticalLabelPosition=bottom;html=1;verticalAlign=top;align=center;shape=mxgraph.floorplan.doorDouble;aspect=fixed;direction=west;" vertex="1" parent="1">
          <mxGeometry x="2250" y="1087.51" width="80" height="42.5" as="geometry" />
        </mxCell>
        <mxCell id="y6a2IPHicbjTbBPUv8F9-8" value="" style="verticalLabelPosition=bottom;html=1;verticalAlign=top;align=center;shape=mxgraph.floorplan.chair;direction=west;" vertex="1" parent="1">
          <mxGeometry x="2130" y="1050" width="30" height="30" as="geometry" />
        </mxCell>
        <mxCell id="y6a2IPHicbjTbBPUv8F9-9" value="" style="verticalLabelPosition=bottom;html=1;verticalAlign=top;align=center;shape=mxgraph.floorplan.chair;direction=west;" vertex="1" parent="1">
          <mxGeometry x="2170" y="1050" width="30" height="30" as="geometry" />
        </mxCell>
        <mxCell id="y6a2IPHicbjTbBPUv8F9-10" value="" style="verticalLabelPosition=bottom;html=1;verticalAlign=top;align=center;shape=mxgraph.floorplan.chair;direction=west;" vertex="1" parent="1">
          <mxGeometry x="2210" y="1050" width="30" height="30" as="geometry" />
        </mxCell>
        <mxCell id="y6a2IPHicbjTbBPUv8F9-11" value="" style="verticalLabelPosition=bottom;html=1;verticalAlign=top;align=center;shape=mxgraph.floorplan.chair;direction=west;" vertex="1" parent="1">
          <mxGeometry x="2090" y="1050" width="30" height="30" as="geometry" />
        </mxCell>
        <mxCell id="y6a2IPHicbjTbBPUv8F9-12" value="" style="verticalLabelPosition=bottom;html=1;verticalAlign=top;align=center;shape=mxgraph.floorplan.chair;direction=west;" vertex="1" parent="1">
          <mxGeometry x="2130" y="1010" width="30" height="30" as="geometry" />
        </mxCell>
        <mxCell id="y6a2IPHicbjTbBPUv8F9-13" value="" style="verticalLabelPosition=bottom;html=1;verticalAlign=top;align=center;shape=mxgraph.floorplan.chair;direction=west;" vertex="1" parent="1">
          <mxGeometry x="2170" y="1010" width="30" height="30" as="geometry" />
        </mxCell>
        <mxCell id="y6a2IPHicbjTbBPUv8F9-14" value="" style="verticalLabelPosition=bottom;html=1;verticalAlign=top;align=center;shape=mxgraph.floorplan.chair;direction=west;" vertex="1" parent="1">
          <mxGeometry x="2210" y="1010" width="30" height="30" as="geometry" />
        </mxCell>
        <mxCell id="y6a2IPHicbjTbBPUv8F9-15" value="" style="verticalLabelPosition=bottom;html=1;verticalAlign=top;align=center;shape=mxgraph.floorplan.chair;direction=west;" vertex="1" parent="1">
          <mxGeometry x="2090" y="1010" width="30" height="30" as="geometry" />
        </mxCell>
        <mxCell id="y6a2IPHicbjTbBPUv8F9-16" value="" style="verticalLabelPosition=bottom;html=1;verticalAlign=top;align=center;shape=mxgraph.floorplan.chair;direction=west;" vertex="1" parent="1">
          <mxGeometry x="2130" y="970" width="30" height="30" as="geometry" />
        </mxCell>
        <mxCell id="y6a2IPHicbjTbBPUv8F9-17" value="" style="verticalLabelPosition=bottom;html=1;verticalAlign=top;align=center;shape=mxgraph.floorplan.chair;direction=west;" vertex="1" parent="1">
          <mxGeometry x="2170" y="970" width="30" height="30" as="geometry" />
        </mxCell>
        <mxCell id="y6a2IPHicbjTbBPUv8F9-18" value="" style="verticalLabelPosition=bottom;html=1;verticalAlign=top;align=center;shape=mxgraph.floorplan.chair;direction=west;" vertex="1" parent="1">
          <mxGeometry x="2210" y="970" width="30" height="30" as="geometry" />
        </mxCell>
        <mxCell id="y6a2IPHicbjTbBPUv8F9-19" value="" style="verticalLabelPosition=bottom;html=1;verticalAlign=top;align=center;shape=mxgraph.floorplan.chair;direction=west;" vertex="1" parent="1">
          <mxGeometry x="2090" y="970" width="30" height="30" as="geometry" />
        </mxCell>
        <mxCell id="y6a2IPHicbjTbBPUv8F9-20" value="" style="verticalLabelPosition=bottom;html=1;verticalAlign=top;align=center;shape=mxgraph.floorplan.chair;direction=west;" vertex="1" parent="1">
          <mxGeometry x="2130" y="930" width="30" height="30" as="geometry" />
        </mxCell>
        <mxCell id="y6a2IPHicbjTbBPUv8F9-21" value="" style="verticalLabelPosition=bottom;html=1;verticalAlign=top;align=center;shape=mxgraph.floorplan.chair;direction=west;" vertex="1" parent="1">
          <mxGeometry x="2170" y="930" width="30" height="30" as="geometry" />
        </mxCell>
        <mxCell id="y6a2IPHicbjTbBPUv8F9-22" value="" style="verticalLabelPosition=bottom;html=1;verticalAlign=top;align=center;shape=mxgraph.floorplan.chair;direction=west;" vertex="1" parent="1">
          <mxGeometry x="2210" y="930" width="30" height="30" as="geometry" />
        </mxCell>
        <mxCell id="y6a2IPHicbjTbBPUv8F9-23" value="" style="verticalLabelPosition=bottom;html=1;verticalAlign=top;align=center;shape=mxgraph.floorplan.chair;direction=west;" vertex="1" parent="1">
          <mxGeometry x="2090" y="930" width="30" height="30" as="geometry" />
        </mxCell>
        <mxCell id="y6a2IPHicbjTbBPUv8F9-32" value="" style="verticalLabelPosition=bottom;html=1;verticalAlign=top;align=center;shape=mxgraph.floorplan.chair;direction=west;" vertex="1" parent="1">
          <mxGeometry x="2330" y="970" width="30" height="30" as="geometry" />
        </mxCell>
        <mxCell id="y6a2IPHicbjTbBPUv8F9-33" value="" style="verticalLabelPosition=bottom;html=1;verticalAlign=top;align=center;shape=mxgraph.floorplan.chair;direction=west;" vertex="1" parent="1">
          <mxGeometry x="2370" y="970" width="30" height="30" as="geometry" />
        </mxCell>
        <mxCell id="y6a2IPHicbjTbBPUv8F9-34" value="" style="verticalLabelPosition=bottom;html=1;verticalAlign=top;align=center;shape=mxgraph.floorplan.chair;direction=west;" vertex="1" parent="1">
          <mxGeometry x="2410" y="970" width="30" height="30" as="geometry" />
        </mxCell>
        <mxCell id="y6a2IPHicbjTbBPUv8F9-35" value="" style="verticalLabelPosition=bottom;html=1;verticalAlign=top;align=center;shape=mxgraph.floorplan.chair;direction=west;" vertex="1" parent="1">
          <mxGeometry x="2330" y="930" width="30" height="30" as="geometry" />
        </mxCell>
        <mxCell id="y6a2IPHicbjTbBPUv8F9-36" value="" style="verticalLabelPosition=bottom;html=1;verticalAlign=top;align=center;shape=mxgraph.floorplan.chair;direction=west;" vertex="1" parent="1">
          <mxGeometry x="2370" y="930" width="30" height="30" as="geometry" />
        </mxCell>
        <mxCell id="y6a2IPHicbjTbBPUv8F9-37" value="" style="verticalLabelPosition=bottom;html=1;verticalAlign=top;align=center;shape=mxgraph.floorplan.chair;direction=west;" vertex="1" parent="1">
          <mxGeometry x="2410" y="930" width="30" height="30" as="geometry" />
        </mxCell>
        <mxCell id="y6a2IPHicbjTbBPUv8F9-54" value="" style="verticalLabelPosition=bottom;html=1;verticalAlign=top;align=center;shape=mxgraph.floorplan.office_chair;shadow=0;" vertex="1" parent="1">
          <mxGeometry x="2380" y="760" width="30" height="43" as="geometry" />
        </mxCell>
        <mxCell id="y6a2IPHicbjTbBPUv8F9-55" value="" style="shape=rect;shadow=0;html=1;" vertex="1" parent="1">
          <mxGeometry x="2360" y="780" width="80" height="50" as="geometry" />
        </mxCell>
        <mxCell id="y6a2IPHicbjTbBPUv8F9-56" value="" style="verticalLabelPosition=bottom;html=1;verticalAlign=top;align=center;shape=mxgraph.floorplan.workstation;shadow=0;flipV=1;" vertex="1" parent="1">
          <mxGeometry x="2372.5" y="790" width="45" height="40" as="geometry" />
        </mxCell>
        <mxCell id="y6a2IPHicbjTbBPUv8F9-59" value="" style="shape=rect;shadow=0;html=1;" vertex="1" parent="1">
          <mxGeometry x="2280" y="780" width="80" height="50" as="geometry" />
        </mxCell>
        <mxCell id="y6a2IPHicbjTbBPUv8F9-61" value="" style="verticalLabelPosition=bottom;html=1;verticalAlign=top;align=center;shape=mxgraph.floorplan.office_chair;shadow=0;" vertex="1" parent="1">
          <mxGeometry x="2220" y="760" width="30" height="43" as="geometry" />
        </mxCell>
        <mxCell id="y6a2IPHicbjTbBPUv8F9-62" value="" style="shape=rect;shadow=0;html=1;" vertex="1" parent="1">
          <mxGeometry x="2200" y="780" width="80" height="50" as="geometry" />
        </mxCell>
        <mxCell id="y6a2IPHicbjTbBPUv8F9-63" value="" style="verticalLabelPosition=bottom;html=1;verticalAlign=top;align=center;shape=mxgraph.floorplan.workstation;shadow=0;flipV=1;" vertex="1" parent="1">
          <mxGeometry x="2210" y="790" width="50" height="40" as="geometry" />
        </mxCell>
        <mxCell id="y6a2IPHicbjTbBPUv8F9-64" value="" style="shape=rect;shadow=0;html=1;" vertex="1" parent="1">
          <mxGeometry x="2130" y="780" width="70" height="50" as="geometry" />
        </mxCell>
        <mxCell id="y6a2IPHicbjTbBPUv8F9-67" value="" style="verticalLabelPosition=bottom;html=1;verticalAlign=top;align=center;shape=mxgraph.floorplan.doorSlidingGlass;dx=0.25;direction=south;" vertex="1" parent="1">
          <mxGeometry x="2130" y="710" width="10" height="70" as="geometry" />
        </mxCell>
        <mxCell id="y6a2IPHicbjTbBPUv8F9-71" value="" style="verticalLabelPosition=bottom;html=1;verticalAlign=top;align=center;shape=mxgraph.floorplan.wall;fillColor=strokeColor;direction=south;" vertex="1" parent="1">
          <mxGeometry x="2440" y="340" width="10" height="790" as="geometry" />
        </mxCell>
        <mxCell id="y6a2IPHicbjTbBPUv8F9-76" value="" style="verticalLabelPosition=bottom;html=1;verticalAlign=top;align=center;shape=mxgraph.floorplan.wall;fillColor=strokeColor;" vertex="1" parent="1">
          <mxGeometry x="2330" y="1120" width="30" height="10" as="geometry" />
        </mxCell>
        <mxCell id="y6a2IPHicbjTbBPUv8F9-77" value="" style="verticalLabelPosition=bottom;html=1;verticalAlign=top;align=center;shape=mxgraph.floorplan.wall;fillColor=strokeColor;" vertex="1" parent="1">
          <mxGeometry x="2130" y="700" width="315" height="10" as="geometry" />
        </mxCell>
        <mxCell id="y6a2IPHicbjTbBPUv8F9-78" value="" style="verticalLabelPosition=bottom;html=1;verticalAlign=top;align=center;shape=mxgraph.floorplan.wall;fillColor=strokeColor;direction=south;" vertex="1" parent="1">
          <mxGeometry x="2440" y="578.75" width="10" height="120" as="geometry" />
        </mxCell>
        <mxCell id="y6a2IPHicbjTbBPUv8F9-79" value="" style="verticalLabelPosition=bottom;html=1;verticalAlign=top;align=center;shape=mxgraph.floorplan.wall;fillColor=strokeColor;direction=west;" vertex="1" parent="1">
          <mxGeometry x="2040" y="1120" width="60" height="10" as="geometry" />
        </mxCell>
        <mxCell id="y6a2IPHicbjTbBPUv8F9-80" value="" style="verticalLabelPosition=bottom;html=1;verticalAlign=top;align=center;shape=mxgraph.floorplan.wall;fillColor=strokeColor;direction=north;" vertex="1" parent="1">
          <mxGeometry x="2040" y="920.01" width="10" height="200" as="geometry" />
        </mxCell>
        <mxCell id="y6a2IPHicbjTbBPUv8F9-81" value="" style="verticalLabelPosition=bottom;html=1;verticalAlign=top;align=center;shape=mxgraph.floorplan.doorBypass;dx=0.25;direction=south;" vertex="1" parent="1">
          <mxGeometry x="2040" y="840" width="10" height="80" as="geometry" />
        </mxCell>
        <mxCell id="y6a2IPHicbjTbBPUv8F9-83" value="" style="verticalLabelPosition=bottom;html=1;verticalAlign=top;align=center;shape=mxgraph.floorplan.wall;fillColor=strokeColor;" vertex="1" parent="1">
          <mxGeometry x="1960" y="920.01" width="80" height="10" as="geometry" />
        </mxCell>
        <mxCell id="y6a2IPHicbjTbBPUv8F9-84" value="" style="verticalLabelPosition=bottom;html=1;verticalAlign=top;align=center;shape=mxgraph.floorplan.toilet;direction=west;" vertex="1" parent="1">
          <mxGeometry x="2000" y="1080.01" width="30" height="40" as="geometry" />
        </mxCell>
        <mxCell id="y6a2IPHicbjTbBPUv8F9-85" value="" style="verticalLabelPosition=bottom;html=1;verticalAlign=top;align=center;shape=mxgraph.floorplan.toilet;direction=west;" vertex="1" parent="1">
          <mxGeometry x="1930" y="1080.01" width="30" height="40" as="geometry" />
        </mxCell>
        <mxCell id="y6a2IPHicbjTbBPUv8F9-89" value="" style="verticalLabelPosition=bottom;html=1;verticalAlign=top;align=center;shape=mxgraph.floorplan.wall;fillColor=strokeColor;direction=south;" vertex="1" parent="1">
          <mxGeometry x="1973.5" y="1020.01" width="10" height="100" as="geometry" />
        </mxCell>
        <mxCell id="y6a2IPHicbjTbBPUv8F9-90" value="" style="verticalLabelPosition=bottom;html=1;verticalAlign=top;align=center;shape=mxgraph.floorplan.doorRight;aspect=fixed;" vertex="1" parent="1">
          <mxGeometry x="2000" y="1020.01" width="40" height="42.51" as="geometry" />
        </mxCell>
        <mxCell id="y6a2IPHicbjTbBPUv8F9-93" value="" style="verticalLabelPosition=bottom;html=1;verticalAlign=top;align=center;shape=mxgraph.floorplan.doorLeft;aspect=fixed;" vertex="1" parent="1">
          <mxGeometry x="1920" y="1020.02" width="40" height="42.5" as="geometry" />
        </mxCell>
        <mxCell id="y6a2IPHicbjTbBPUv8F9-94" value="" style="verticalLabelPosition=bottom;html=1;verticalAlign=top;align=center;shape=mxgraph.floorplan.wall;fillColor=strokeColor;direction=south;" vertex="1" parent="1">
          <mxGeometry x="1910" y="920.01" width="10" height="200.01" as="geometry" />
        </mxCell>
        <mxCell id="y6a2IPHicbjTbBPUv8F9-95" value="" style="verticalLabelPosition=bottom;html=1;verticalAlign=top;align=center;shape=mxgraph.floorplan.sink_22;" vertex="1" parent="1">
          <mxGeometry x="1960" y="930.01" width="40" height="35" as="geometry" />
        </mxCell>
        <mxCell id="y6a2IPHicbjTbBPUv8F9-96" value="" style="verticalLabelPosition=bottom;html=1;verticalAlign=top;align=center;shape=mxgraph.floorplan.sink_22;" vertex="1" parent="1">
          <mxGeometry x="2000" y="930.01" width="40" height="35" as="geometry" />
        </mxCell>
        <mxCell id="y6a2IPHicbjTbBPUv8F9-97" value="" style="verticalLabelPosition=bottom;html=1;verticalAlign=top;align=center;shape=mxgraph.floorplan.doorLeft;aspect=fixed;" vertex="1" parent="1">
          <mxGeometry x="1920" y="920.01" width="40" height="42.5" as="geometry" />
        </mxCell>
        <mxCell id="y6a2IPHicbjTbBPUv8F9-98" value="" style="verticalLabelPosition=bottom;html=1;verticalAlign=top;align=center;shape=mxgraph.floorplan.wall;fillColor=strokeColor;" vertex="1" parent="1">
          <mxGeometry x="1960" y="1020.01" width="40" height="10" as="geometry" />
        </mxCell>
        <mxCell id="y6a2IPHicbjTbBPUv8F9-99" value="" style="verticalLabelPosition=bottom;html=1;verticalAlign=top;align=center;shape=mxgraph.floorplan.wall;fillColor=strokeColor;" vertex="1" parent="1">
          <mxGeometry x="1910" y="1120.01" width="130" height="10" as="geometry" />
        </mxCell>
        <mxCell id="y6a2IPHicbjTbBPUv8F9-111" value="" style="verticalLabelPosition=bottom;html=1;verticalAlign=top;align=center;shape=mxgraph.floorplan.toilet;direction=west;" vertex="1" parent="1">
          <mxGeometry x="1870" y="1080" width="30" height="40" as="geometry" />
        </mxCell>
        <mxCell id="y6a2IPHicbjTbBPUv8F9-112" value="" style="verticalLabelPosition=bottom;html=1;verticalAlign=top;align=center;shape=mxgraph.floorplan.toilet;direction=west;" vertex="1" parent="1">
          <mxGeometry x="1800" y="1080" width="30" height="40" as="geometry" />
        </mxCell>
        <mxCell id="y6a2IPHicbjTbBPUv8F9-113" value="" style="verticalLabelPosition=bottom;html=1;verticalAlign=top;align=center;shape=mxgraph.floorplan.wall;fillColor=strokeColor;direction=south;" vertex="1" parent="1">
          <mxGeometry x="1843.5" y="1020" width="10" height="100" as="geometry" />
        </mxCell>
        <mxCell id="y6a2IPHicbjTbBPUv8F9-114" value="" style="verticalLabelPosition=bottom;html=1;verticalAlign=top;align=center;shape=mxgraph.floorplan.doorRight;aspect=fixed;" vertex="1" parent="1">
          <mxGeometry x="1870" y="1020" width="40" height="42.51" as="geometry" />
        </mxCell>
        <mxCell id="y6a2IPHicbjTbBPUv8F9-115" value="" style="verticalLabelPosition=bottom;html=1;verticalAlign=top;align=center;shape=mxgraph.floorplan.doorLeft;aspect=fixed;" vertex="1" parent="1">
          <mxGeometry x="1790" y="1020.01" width="40" height="42.5" as="geometry" />
        </mxCell>
        <mxCell id="y6a2IPHicbjTbBPUv8F9-116" value="" style="verticalLabelPosition=bottom;html=1;verticalAlign=top;align=center;shape=mxgraph.floorplan.wall;fillColor=strokeColor;direction=south;" vertex="1" parent="1">
          <mxGeometry x="1780" y="920" width="10" height="200.01" as="geometry" />
        </mxCell>
        <mxCell id="y6a2IPHicbjTbBPUv8F9-117" value="" style="verticalLabelPosition=bottom;html=1;verticalAlign=top;align=center;shape=mxgraph.floorplan.sink_22;" vertex="1" parent="1">
          <mxGeometry x="1790" y="930" width="40" height="35" as="geometry" />
        </mxCell>
        <mxCell id="y6a2IPHicbjTbBPUv8F9-118" value="" style="verticalLabelPosition=bottom;html=1;verticalAlign=top;align=center;shape=mxgraph.floorplan.sink_22;" vertex="1" parent="1">
          <mxGeometry x="1830" y="930.01" width="40" height="35" as="geometry" />
        </mxCell>
        <mxCell id="y6a2IPHicbjTbBPUv8F9-120" value="" style="verticalLabelPosition=bottom;html=1;verticalAlign=top;align=center;shape=mxgraph.floorplan.wall;fillColor=strokeColor;" vertex="1" parent="1">
          <mxGeometry x="1830" y="1020" width="40" height="10" as="geometry" />
        </mxCell>
        <mxCell id="y6a2IPHicbjTbBPUv8F9-121" value="" style="verticalLabelPosition=bottom;html=1;verticalAlign=top;align=center;shape=mxgraph.floorplan.doorRight;aspect=fixed;" vertex="1" parent="1">
          <mxGeometry x="1870" y="920.01" width="40" height="42.51" as="geometry" />
        </mxCell>
        <mxCell id="y6a2IPHicbjTbBPUv8F9-122" value="" style="verticalLabelPosition=bottom;html=1;verticalAlign=top;align=center;shape=mxgraph.floorplan.wall;fillColor=strokeColor;" vertex="1" parent="1">
          <mxGeometry x="1790" y="920.01" width="80" height="10" as="geometry" />
        </mxCell>
        <mxCell id="y6a2IPHicbjTbBPUv8F9-123" value="" style="verticalLabelPosition=bottom;html=1;verticalAlign=top;align=center;shape=mxgraph.floorplan.wall;fillColor=strokeColor;" vertex="1" parent="1">
          <mxGeometry x="1280" y="1120" width="630" height="10" as="geometry" />
        </mxCell>
        <mxCell id="y6a2IPHicbjTbBPUv8F9-124" value="" style="verticalLabelPosition=bottom;html=1;verticalAlign=top;align=center;shape=mxgraph.floorplan.printer;direction=west;" vertex="1" parent="1">
          <mxGeometry x="2305" y="790" width="30" height="37" as="geometry" />
        </mxCell>
        <mxCell id="y6a2IPHicbjTbBPUv8F9-128" value="" style="verticalLabelPosition=bottom;html=1;verticalAlign=top;align=center;shape=mxgraph.floorplan.office_chair;shadow=0;rotation=90;" vertex="1" parent="1">
          <mxGeometry x="2375" y="637.25" width="30" height="43" as="geometry" />
        </mxCell>
        <mxCell id="y6a2IPHicbjTbBPUv8F9-129" value="" style="shape=rect;shadow=0;html=1;rotation=90;" vertex="1" parent="1">
          <mxGeometry x="2334" y="633.75" width="80" height="50" as="geometry" />
        </mxCell>
        <mxCell id="y6a2IPHicbjTbBPUv8F9-130" value="" style="verticalLabelPosition=bottom;html=1;verticalAlign=top;align=center;shape=mxgraph.floorplan.workstation;shadow=0;flipV=1;rotation=90;" vertex="1" parent="1">
          <mxGeometry x="2345" y="633.75" width="50" height="40" as="geometry" />
        </mxCell>
        <mxCell id="y6a2IPHicbjTbBPUv8F9-132" value="" style="verticalLabelPosition=bottom;html=1;verticalAlign=top;align=center;shape=mxgraph.floorplan.wall;fillColor=strokeColor;" vertex="1" parent="1">
          <mxGeometry x="2190" y="698.75" width="260" height="10" as="geometry" />
        </mxCell>
        <mxCell id="y6a2IPHicbjTbBPUv8F9-135" value="" style="verticalLabelPosition=bottom;html=1;verticalAlign=top;align=center;shape=mxgraph.floorplan.doorLeft;aspect=fixed;rotation=-90;" vertex="1" parent="1">
          <mxGeometry x="2190" y="657.5" width="40" height="42.5" as="geometry" />
        </mxCell>
        <mxCell id="y6a2IPHicbjTbBPUv8F9-137" value="" style="verticalLabelPosition=bottom;html=1;verticalAlign=top;align=center;shape=mxgraph.floorplan.wall;fillColor=strokeColor;direction=south;" vertex="1" parent="1">
          <mxGeometry x="2190" y="587.5" width="10" height="70" as="geometry" />
        </mxCell>
        <mxCell id="y6a2IPHicbjTbBPUv8F9-142" value="" style="verticalLabelPosition=bottom;html=1;verticalAlign=top;align=center;shape=mxgraph.floorplan.wall;fillColor=strokeColor;" vertex="1" parent="1">
          <mxGeometry x="2190" y="578.75" width="250" height="10" as="geometry" />
        </mxCell>
        <mxCell id="y6a2IPHicbjTbBPUv8F9-159" value="" style="verticalLabelPosition=bottom;html=1;verticalAlign=top;align=center;shape=mxgraph.floorplan.wall;fillColor=strokeColor;" vertex="1" parent="1">
          <mxGeometry x="1790" y="700.01" width="260" height="10" as="geometry" />
        </mxCell>
        <mxCell id="y6a2IPHicbjTbBPUv8F9-160" value="" style="verticalLabelPosition=bottom;html=1;verticalAlign=top;align=center;shape=mxgraph.floorplan.wall;fillColor=strokeColor;" vertex="1" parent="1">
          <mxGeometry x="1800" y="580.01" width="250" height="10" as="geometry" />
        </mxCell>
        <mxCell id="y6a2IPHicbjTbBPUv8F9-161" value="" style="verticalLabelPosition=bottom;html=1;verticalAlign=top;align=center;shape=mxgraph.floorplan.doorRight;aspect=fixed;direction=south;" vertex="1" parent="1">
          <mxGeometry x="2007.495" y="660.005" width="42.51" height="40" as="geometry" />
        </mxCell>
        <mxCell id="y6a2IPHicbjTbBPUv8F9-162" value="" style="verticalLabelPosition=bottom;html=1;verticalAlign=top;align=center;shape=mxgraph.floorplan.wall;fillColor=strokeColor;direction=south;" vertex="1" parent="1">
          <mxGeometry x="2040" y="590.01" width="10" height="70" as="geometry" />
        </mxCell>
        <mxCell id="y6a2IPHicbjTbBPUv8F9-163" value="" style="verticalLabelPosition=bottom;html=1;verticalAlign=top;align=center;shape=mxgraph.floorplan.wall;fillColor=strokeColor;direction=south;" vertex="1" parent="1">
          <mxGeometry x="1250" y="190.51" width="50" height="939.49" as="geometry" />
        </mxCell>
        <mxCell id="y6a2IPHicbjTbBPUv8F9-169" value="" style="verticalLabelPosition=bottom;html=1;verticalAlign=top;align=center;shape=mxgraph.floorplan.office_chair;shadow=0;rotation=90;direction=west;" vertex="1" parent="1">
          <mxGeometry x="1850" y="633.26" width="30" height="43" as="geometry" />
        </mxCell>
        <mxCell id="y6a2IPHicbjTbBPUv8F9-170" value="" style="rounded=0;whiteSpace=wrap;html=1;" vertex="1" parent="1">
          <mxGeometry x="1850" y="621.26" width="50" height="78.5" as="geometry" />
        </mxCell>
        <mxCell id="y6a2IPHicbjTbBPUv8F9-171" value="" style="verticalLabelPosition=bottom;html=1;verticalAlign=top;align=center;shape=mxgraph.floorplan.workstation;shadow=0;flipV=1;rotation=90;direction=west;" vertex="1" parent="1">
          <mxGeometry x="1856.25" y="637.51" width="50" height="37.5" as="geometry" />
        </mxCell>
        <mxCell id="y6a2IPHicbjTbBPUv8F9-175" value="" style="verticalLabelPosition=bottom;html=1;verticalAlign=top;align=center;shape=mxgraph.floorplan.wall;fillColor=strokeColor;direction=south;" vertex="1" parent="1">
          <mxGeometry x="2440" y="458.76" width="10" height="120" as="geometry" />
        </mxCell>
        <mxCell id="y6a2IPHicbjTbBPUv8F9-176" value="" style="verticalLabelPosition=bottom;html=1;verticalAlign=top;align=center;shape=mxgraph.floorplan.office_chair;shadow=0;rotation=90;" vertex="1" parent="1">
          <mxGeometry x="2375" y="517.26" width="30" height="43" as="geometry" />
        </mxCell>
        <mxCell id="y6a2IPHicbjTbBPUv8F9-177" value="" style="shape=rect;shadow=0;html=1;rotation=90;" vertex="1" parent="1">
          <mxGeometry x="2334" y="513.76" width="80" height="50" as="geometry" />
        </mxCell>
        <mxCell id="y6a2IPHicbjTbBPUv8F9-178" value="" style="verticalLabelPosition=bottom;html=1;verticalAlign=top;align=center;shape=mxgraph.floorplan.workstation;shadow=0;flipV=1;rotation=90;" vertex="1" parent="1">
          <mxGeometry x="2345" y="513.76" width="50" height="40" as="geometry" />
        </mxCell>
        <mxCell id="y6a2IPHicbjTbBPUv8F9-180" value="" style="verticalLabelPosition=bottom;html=1;verticalAlign=top;align=center;shape=mxgraph.floorplan.doorLeft;aspect=fixed;rotation=-90;" vertex="1" parent="1">
          <mxGeometry x="2190" y="537.51" width="40" height="42.5" as="geometry" />
        </mxCell>
        <mxCell id="y6a2IPHicbjTbBPUv8F9-181" value="" style="verticalLabelPosition=bottom;html=1;verticalAlign=top;align=center;shape=mxgraph.floorplan.wall;fillColor=strokeColor;direction=south;" vertex="1" parent="1">
          <mxGeometry x="2190" y="467.51" width="10" height="70" as="geometry" />
        </mxCell>
        <mxCell id="y6a2IPHicbjTbBPUv8F9-182" value="" style="verticalLabelPosition=bottom;html=1;verticalAlign=top;align=center;shape=mxgraph.floorplan.wall;fillColor=strokeColor;" vertex="1" parent="1">
          <mxGeometry x="2190" y="458.76" width="250" height="10" as="geometry" />
        </mxCell>
        <mxCell id="y6a2IPHicbjTbBPUv8F9-183" value="" style="verticalLabelPosition=bottom;html=1;verticalAlign=top;align=center;shape=mxgraph.floorplan.wall;fillColor=strokeColor;direction=south;" vertex="1" parent="1">
          <mxGeometry x="2440" y="338.76" width="10" height="120" as="geometry" />
        </mxCell>
        <mxCell id="y6a2IPHicbjTbBPUv8F9-184" value="" style="verticalLabelPosition=bottom;html=1;verticalAlign=top;align=center;shape=mxgraph.floorplan.office_chair;shadow=0;rotation=90;" vertex="1" parent="1">
          <mxGeometry x="2375" y="397.26" width="30" height="43" as="geometry" />
        </mxCell>
        <mxCell id="y6a2IPHicbjTbBPUv8F9-185" value="" style="shape=rect;shadow=0;html=1;rotation=90;" vertex="1" parent="1">
          <mxGeometry x="2334" y="393.76" width="80" height="50" as="geometry" />
        </mxCell>
        <mxCell id="y6a2IPHicbjTbBPUv8F9-186" value="" style="verticalLabelPosition=bottom;html=1;verticalAlign=top;align=center;shape=mxgraph.floorplan.workstation;shadow=0;flipV=1;rotation=90;" vertex="1" parent="1">
          <mxGeometry x="2345" y="393.76" width="50" height="40" as="geometry" />
        </mxCell>
        <mxCell id="y6a2IPHicbjTbBPUv8F9-188" value="" style="verticalLabelPosition=bottom;html=1;verticalAlign=top;align=center;shape=mxgraph.floorplan.doorLeft;aspect=fixed;rotation=-90;" vertex="1" parent="1">
          <mxGeometry x="2190" y="417.51" width="40" height="42.5" as="geometry" />
        </mxCell>
        <mxCell id="y6a2IPHicbjTbBPUv8F9-189" value="" style="verticalLabelPosition=bottom;html=1;verticalAlign=top;align=center;shape=mxgraph.floorplan.wall;fillColor=strokeColor;direction=south;" vertex="1" parent="1">
          <mxGeometry x="2190" y="347.51" width="10" height="70" as="geometry" />
        </mxCell>
        <mxCell id="y6a2IPHicbjTbBPUv8F9-190" value="" style="verticalLabelPosition=bottom;html=1;verticalAlign=top;align=center;shape=mxgraph.floorplan.wall;fillColor=strokeColor;" vertex="1" parent="1">
          <mxGeometry x="2190" y="338.76" width="250" height="10" as="geometry" />
        </mxCell>
        <mxCell id="y6a2IPHicbjTbBPUv8F9-191" value="" style="verticalLabelPosition=bottom;html=1;verticalAlign=top;align=center;shape=mxgraph.floorplan.wall;fillColor=strokeColor;" vertex="1" parent="1">
          <mxGeometry x="1790" y="580.01" width="259.99" height="10" as="geometry" />
        </mxCell>
        <mxCell id="y6a2IPHicbjTbBPUv8F9-192" value="" style="verticalLabelPosition=bottom;html=1;verticalAlign=top;align=center;shape=mxgraph.floorplan.wall;fillColor=strokeColor;" vertex="1" parent="1">
          <mxGeometry x="1799.99" y="460.01" width="250" height="10" as="geometry" />
        </mxCell>
        <mxCell id="y6a2IPHicbjTbBPUv8F9-193" value="" style="verticalLabelPosition=bottom;html=1;verticalAlign=top;align=center;shape=mxgraph.floorplan.doorRight;aspect=fixed;direction=south;" vertex="1" parent="1">
          <mxGeometry x="2007.4850000000001" y="540.005" width="42.51" height="40" as="geometry" />
        </mxCell>
        <mxCell id="y6a2IPHicbjTbBPUv8F9-194" value="" style="verticalLabelPosition=bottom;html=1;verticalAlign=top;align=center;shape=mxgraph.floorplan.wall;fillColor=strokeColor;direction=south;" vertex="1" parent="1">
          <mxGeometry x="2039.99" y="470.01" width="10" height="70" as="geometry" />
        </mxCell>
        <mxCell id="y6a2IPHicbjTbBPUv8F9-196" value="" style="verticalLabelPosition=bottom;html=1;verticalAlign=top;align=center;shape=mxgraph.floorplan.office_chair;shadow=0;rotation=90;direction=west;" vertex="1" parent="1">
          <mxGeometry x="1849.99" y="513.26" width="30" height="43" as="geometry" />
        </mxCell>
        <mxCell id="y6a2IPHicbjTbBPUv8F9-197" value="" style="rounded=0;whiteSpace=wrap;html=1;" vertex="1" parent="1">
          <mxGeometry x="1849.99" y="501.26" width="50" height="78.5" as="geometry" />
        </mxCell>
        <mxCell id="y6a2IPHicbjTbBPUv8F9-198" value="" style="verticalLabelPosition=bottom;html=1;verticalAlign=top;align=center;shape=mxgraph.floorplan.workstation;shadow=0;flipV=1;rotation=90;direction=west;" vertex="1" parent="1">
          <mxGeometry x="1856.24" y="517.51" width="50" height="37.5" as="geometry" />
        </mxCell>
        <mxCell id="y6a2IPHicbjTbBPUv8F9-199" value="" style="verticalLabelPosition=bottom;html=1;verticalAlign=top;align=center;shape=mxgraph.floorplan.wall;fillColor=strokeColor;" vertex="1" parent="1">
          <mxGeometry x="1790" y="460.01" width="260" height="10" as="geometry" />
        </mxCell>
        <mxCell id="y6a2IPHicbjTbBPUv8F9-200" value="" style="verticalLabelPosition=bottom;html=1;verticalAlign=top;align=center;shape=mxgraph.floorplan.wall;fillColor=strokeColor;" vertex="1" parent="1">
          <mxGeometry x="1790" y="340.01" width="260" height="10" as="geometry" />
        </mxCell>
        <mxCell id="y6a2IPHicbjTbBPUv8F9-201" value="" style="verticalLabelPosition=bottom;html=1;verticalAlign=top;align=center;shape=mxgraph.floorplan.doorRight;aspect=fixed;direction=south;" vertex="1" parent="1">
          <mxGeometry x="2007.495" y="420.005" width="42.51" height="40" as="geometry" />
        </mxCell>
        <mxCell id="y6a2IPHicbjTbBPUv8F9-202" value="" style="verticalLabelPosition=bottom;html=1;verticalAlign=top;align=center;shape=mxgraph.floorplan.wall;fillColor=strokeColor;direction=south;" vertex="1" parent="1">
          <mxGeometry x="2040" y="350.01" width="10" height="70" as="geometry" />
        </mxCell>
        <mxCell id="y6a2IPHicbjTbBPUv8F9-204" value="" style="verticalLabelPosition=bottom;html=1;verticalAlign=top;align=center;shape=mxgraph.floorplan.office_chair;shadow=0;rotation=90;direction=west;" vertex="1" parent="1">
          <mxGeometry x="1850" y="393.26" width="30" height="43" as="geometry" />
        </mxCell>
        <mxCell id="y6a2IPHicbjTbBPUv8F9-205" value="" style="rounded=0;whiteSpace=wrap;html=1;" vertex="1" parent="1">
          <mxGeometry x="1850" y="381.26" width="50" height="78.5" as="geometry" />
        </mxCell>
        <mxCell id="y6a2IPHicbjTbBPUv8F9-206" value="" style="verticalLabelPosition=bottom;html=1;verticalAlign=top;align=center;shape=mxgraph.floorplan.workstation;shadow=0;flipV=1;rotation=90;direction=west;" vertex="1" parent="1">
          <mxGeometry x="1856.25" y="397.51" width="50" height="37.5" as="geometry" />
        </mxCell>
        <mxCell id="y6a2IPHicbjTbBPUv8F9-207" value="" style="verticalLabelPosition=bottom;html=1;verticalAlign=top;align=center;shape=mxgraph.floorplan.wall;fillColor=strokeColor;" vertex="1" parent="1">
          <mxGeometry x="1840" y="830" width="210" height="10" as="geometry" />
        </mxCell>
        <mxCell id="y6a2IPHicbjTbBPUv8F9-209" value="" style="verticalLabelPosition=bottom;html=1;verticalAlign=top;align=center;shape=mxgraph.floorplan.wall;fillColor=strokeColor;direction=south;" vertex="1" parent="1">
          <mxGeometry x="2040" y="710" width="10" height="120" as="geometry" />
        </mxCell>
        <mxCell id="y6a2IPHicbjTbBPUv8F9-211" value="" style="verticalLabelPosition=bottom;html=1;verticalAlign=top;align=center;shape=mxgraph.floorplan.chair;direction=west;" vertex="1" parent="1">
          <mxGeometry x="2130" y="890.01" width="30" height="30" as="geometry" />
        </mxCell>
        <mxCell id="y6a2IPHicbjTbBPUv8F9-212" value="" style="verticalLabelPosition=bottom;html=1;verticalAlign=top;align=center;shape=mxgraph.floorplan.chair;direction=west;" vertex="1" parent="1">
          <mxGeometry x="2170" y="890.01" width="30" height="30" as="geometry" />
        </mxCell>
        <mxCell id="y6a2IPHicbjTbBPUv8F9-213" value="" style="verticalLabelPosition=bottom;html=1;verticalAlign=top;align=center;shape=mxgraph.floorplan.chair;direction=west;" vertex="1" parent="1">
          <mxGeometry x="2210" y="890.01" width="30" height="30" as="geometry" />
        </mxCell>
        <mxCell id="y6a2IPHicbjTbBPUv8F9-214" value="" style="verticalLabelPosition=bottom;html=1;verticalAlign=top;align=center;shape=mxgraph.floorplan.chair;direction=west;" vertex="1" parent="1">
          <mxGeometry x="2090" y="890.01" width="30" height="30" as="geometry" />
        </mxCell>
        <mxCell id="y6a2IPHicbjTbBPUv8F9-215" value="" style="verticalLabelPosition=bottom;html=1;verticalAlign=top;align=center;shape=mxgraph.floorplan.chair;direction=west;" vertex="1" parent="1">
          <mxGeometry x="2330" y="890.01" width="30" height="30" as="geometry" />
        </mxCell>
        <mxCell id="y6a2IPHicbjTbBPUv8F9-216" value="" style="verticalLabelPosition=bottom;html=1;verticalAlign=top;align=center;shape=mxgraph.floorplan.chair;direction=west;" vertex="1" parent="1">
          <mxGeometry x="2370" y="890.01" width="30" height="30" as="geometry" />
        </mxCell>
        <mxCell id="y6a2IPHicbjTbBPUv8F9-217" value="" style="verticalLabelPosition=bottom;html=1;verticalAlign=top;align=center;shape=mxgraph.floorplan.chair;direction=west;" vertex="1" parent="1">
          <mxGeometry x="2410" y="890.01" width="30" height="30" as="geometry" />
        </mxCell>
        <mxCell id="y6a2IPHicbjTbBPUv8F9-218" value="" style="verticalLabelPosition=bottom;html=1;verticalAlign=top;align=center;shape=mxgraph.floorplan.room;fillColor=#0000FF;" vertex="1" parent="1">
          <mxGeometry x="1260" y="190.51" width="10" height="940" as="geometry" />
        </mxCell>
        <mxCell id="y6a2IPHicbjTbBPUv8F9-219" value="" style="verticalLabelPosition=bottom;html=1;verticalAlign=top;align=center;shape=mxgraph.floorplan.room;fillColor=#0000FF;direction=south;" vertex="1" parent="1">
          <mxGeometry x="1270" y="1130.01" width="1180" height="10" as="geometry" />
        </mxCell>
        <mxCell id="y6a2IPHicbjTbBPUv8F9-220" value="" style="verticalLabelPosition=bottom;html=1;verticalAlign=top;align=center;shape=mxgraph.floorplan.plant;" vertex="1" parent="1">
          <mxGeometry x="2053" y="1080" width="30" height="36" as="geometry" />
        </mxCell>
        <mxCell id="y6a2IPHicbjTbBPUv8F9-222" value="" style="verticalLabelPosition=bottom;html=1;verticalAlign=top;align=center;shape=mxgraph.floorplan.plant;" vertex="1" parent="1">
          <mxGeometry x="2405" y="1080" width="30" height="36" as="geometry" />
        </mxCell>
        <mxCell id="y6a2IPHicbjTbBPUv8F9-223" value="" style="verticalLabelPosition=bottom;html=1;verticalAlign=top;align=center;shape=mxgraph.floorplan.plant;" vertex="1" parent="1">
          <mxGeometry x="2200" y="350.01" width="30" height="36" as="geometry" />
        </mxCell>
        <mxCell id="y6a2IPHicbjTbBPUv8F9-224" value="" style="verticalLabelPosition=bottom;html=1;verticalAlign=top;align=center;shape=mxgraph.floorplan.plant;" vertex="1" parent="1">
          <mxGeometry x="2200" y="470.01" width="30" height="36" as="geometry" />
        </mxCell>
        <mxCell id="y6a2IPHicbjTbBPUv8F9-225" value="" style="verticalLabelPosition=bottom;html=1;verticalAlign=top;align=center;shape=mxgraph.floorplan.plant;" vertex="1" parent="1">
          <mxGeometry x="2200" y="590.01" width="30" height="36" as="geometry" />
        </mxCell>
        <mxCell id="y6a2IPHicbjTbBPUv8F9-226" value="" style="verticalLabelPosition=bottom;html=1;verticalAlign=top;align=center;shape=mxgraph.floorplan.plant;" vertex="1" parent="1">
          <mxGeometry x="2005" y="348.76" width="30" height="36" as="geometry" />
        </mxCell>
        <mxCell id="y6a2IPHicbjTbBPUv8F9-227" value="" style="verticalLabelPosition=bottom;html=1;verticalAlign=top;align=center;shape=mxgraph.floorplan.plant;" vertex="1" parent="1">
          <mxGeometry x="2010" y="470.01" width="30" height="36" as="geometry" />
        </mxCell>
        <mxCell id="y6a2IPHicbjTbBPUv8F9-228" value="" style="verticalLabelPosition=bottom;html=1;verticalAlign=top;align=center;shape=mxgraph.floorplan.plant;" vertex="1" parent="1">
          <mxGeometry x="2007.5" y="587.5" width="30" height="36" as="geometry" />
        </mxCell>
        <mxCell id="y6a2IPHicbjTbBPUv8F9-229" value="" style="verticalLabelPosition=bottom;html=1;verticalAlign=top;align=center;shape=mxgraph.floorplan.wall;fillColor=strokeColor;" vertex="1" parent="1">
          <mxGeometry x="1780" y="190" width="670" height="10" as="geometry" />
        </mxCell>
        <mxCell id="y6a2IPHicbjTbBPUv8F9-232" value="" style="verticalLabelPosition=bottom;html=1;verticalAlign=top;align=center;shape=mxgraph.floorplan.wall;fillColor=strokeColor;direction=south;" vertex="1" parent="1">
          <mxGeometry x="2440" y="200" width="10" height="140" as="geometry" />
        </mxCell>
        <mxCell id="y6a2IPHicbjTbBPUv8F9-250" value="" style="verticalLabelPosition=bottom;html=1;verticalAlign=top;align=center;shape=mxgraph.floorplan.bed_single;rotation=90;" vertex="1" parent="1">
          <mxGeometry x="2355" y="170" width="40" height="120" as="geometry" />
        </mxCell>
        <mxCell id="y6a2IPHicbjTbBPUv8F9-251" value="" style="verticalLabelPosition=bottom;html=1;verticalAlign=top;align=center;shape=mxgraph.floorplan.office_chair;shadow=0;" vertex="1" parent="1">
          <mxGeometry x="2220" y="216.25" width="30" height="43" as="geometry" />
        </mxCell>
        <mxCell id="y6a2IPHicbjTbBPUv8F9-252" value="" style="shape=rect;shadow=0;html=1;" vertex="1" parent="1">
          <mxGeometry x="2200" y="236.25" width="80" height="50" as="geometry" />
        </mxCell>
        <mxCell id="y6a2IPHicbjTbBPUv8F9-253" value="" style="verticalLabelPosition=bottom;html=1;verticalAlign=top;align=center;shape=mxgraph.floorplan.workstation;shadow=0;flipV=1;" vertex="1" parent="1">
          <mxGeometry x="2210" y="246.25" width="50" height="40" as="geometry" />
        </mxCell>
        <mxCell id="y6a2IPHicbjTbBPUv8F9-254" value="" style="verticalLabelPosition=bottom;html=1;verticalAlign=top;align=center;shape=mxgraph.floorplan.wall;fillColor=strokeColor;direction=south;" vertex="1" parent="1">
          <mxGeometry x="2190" y="200" width="10" height="100" as="geometry" />
        </mxCell>
        <mxCell id="y6a2IPHicbjTbBPUv8F9-255" value="" style="verticalLabelPosition=bottom;html=1;verticalAlign=top;align=center;shape=mxgraph.floorplan.doorLeft;aspect=fixed;rotation=-90;" vertex="1" parent="1">
          <mxGeometry x="2190" y="296.26" width="40" height="42.5" as="geometry" />
        </mxCell>
        <mxCell id="y6a2IPHicbjTbBPUv8F9-256" value="" style="verticalLabelPosition=bottom;html=1;verticalAlign=top;align=center;shape=mxgraph.floorplan.wall;fillColor=strokeColor;" vertex="1" parent="1">
          <mxGeometry x="1680" y="190" width="100" height="10" as="geometry" />
        </mxCell>
        <mxCell id="y6a2IPHicbjTbBPUv8F9-257" value="" style="verticalLabelPosition=bottom;html=1;verticalAlign=top;align=center;shape=mxgraph.floorplan.sink_22;" vertex="1" parent="1">
          <mxGeometry x="1790" y="710.01" width="50" height="35" as="geometry" />
        </mxCell>
        <mxCell id="y6a2IPHicbjTbBPUv8F9-258" value="" style="verticalLabelPosition=bottom;html=1;verticalAlign=top;align=center;shape=mxgraph.floorplan.toilet;direction=south;" vertex="1" parent="1">
          <mxGeometry x="1999.99" y="793.5" width="40" height="30" as="geometry" />
        </mxCell>
        <mxCell id="y6a2IPHicbjTbBPUv8F9-261" value="" style="verticalLabelPosition=bottom;html=1;verticalAlign=top;align=center;shape=mxgraph.floorplan.doorRight;aspect=fixed;direction=west;" vertex="1" parent="1">
          <mxGeometry x="1790" y="786.87" width="50" height="53.13" as="geometry" />
        </mxCell>
        <mxCell id="y6a2IPHicbjTbBPUv8F9-264" value="" style="shape=crossbar;whiteSpace=wrap;html=1;rounded=1;direction=south;" vertex="1" parent="1">
          <mxGeometry x="2031.5" y="758.37" width="8.5" height="28.5" as="geometry" />
        </mxCell>
        <mxCell id="y6a2IPHicbjTbBPUv8F9-267" value="" style="shape=crossbar;whiteSpace=wrap;html=1;rounded=1;direction=west;" vertex="1" parent="1">
          <mxGeometry x="1971.49" y="821.5" width="28.5" height="8.5" as="geometry" />
        </mxCell>
        <mxCell id="y6a2IPHicbjTbBPUv8F9-268" value="" style="verticalLabelPosition=bottom;html=1;verticalAlign=top;align=center;shape=mxgraph.floorplan.plant;" vertex="1" parent="1">
          <mxGeometry x="2410" y="710.01" width="30" height="36" as="geometry" />
        </mxCell>
        <mxCell id="y6a2IPHicbjTbBPUv8F9-269" value="" style="verticalLabelPosition=bottom;html=1;verticalAlign=top;align=center;shape=mxgraph.floorplan.wall;fillColor=strokeColor;direction=west;" vertex="1" parent="1">
          <mxGeometry x="2210" y="1120.02" width="40" height="10" as="geometry" />
        </mxCell>
        <mxCell id="y6a2IPHicbjTbBPUv8F9-270" value="" style="verticalLabelPosition=bottom;html=1;verticalAlign=top;align=center;shape=mxgraph.floorplan.window;" vertex="1" parent="1">
          <mxGeometry x="2100" y="1120" width="110" height="10" as="geometry" />
        </mxCell>
        <mxCell id="y6a2IPHicbjTbBPUv8F9-271" value="" style="verticalLabelPosition=bottom;html=1;verticalAlign=top;align=center;shape=mxgraph.floorplan.window;" vertex="1" parent="1">
          <mxGeometry x="2360" y="1120" width="50" height="10" as="geometry" />
        </mxCell>
        <mxCell id="y6a2IPHicbjTbBPUv8F9-272" value="" style="verticalLabelPosition=bottom;html=1;verticalAlign=top;align=center;shape=mxgraph.floorplan.wall;fillColor=strokeColor;" vertex="1" parent="1">
          <mxGeometry x="2410" y="1120" width="30" height="10" as="geometry" />
        </mxCell>
        <mxCell id="y6a2IPHicbjTbBPUv8F9-273" value="" style="verticalLabelPosition=bottom;html=1;verticalAlign=top;align=center;shape=mxgraph.floorplan.room;fillColor=#0000FF;" vertex="1" parent="1">
          <mxGeometry x="2450" y="190.51" width="10" height="940" as="geometry" />
        </mxCell>
        <mxCell id="y6a2IPHicbjTbBPUv8F9-274" value="" style="verticalLabelPosition=bottom;html=1;verticalAlign=top;align=center;shape=mxgraph.floorplan.wall;fillColor=strokeColor;direction=west;" vertex="1" parent="1">
          <mxGeometry x="1280" y="186.25" width="400" height="17.5" as="geometry" />
        </mxCell>
        <mxCell id="y6a2IPHicbjTbBPUv8F9-275" value="" style="verticalLabelPosition=bottom;html=1;verticalAlign=top;align=center;shape=mxgraph.floorplan.wall;fillColor=strokeColor;direction=south;" vertex="1" parent="1">
          <mxGeometry x="1780" y="340.01" width="10" height="499.99" as="geometry" />
        </mxCell>
        <mxCell id="y6a2IPHicbjTbBPUv8F9-276" value="" style="verticalLabelPosition=bottom;html=1;verticalAlign=top;align=center;shape=mxgraph.floorplan.wall;fillColor=strokeColor;direction=south;" vertex="1" parent="1">
          <mxGeometry x="1670" y="240" width="10" height="250" as="geometry" />
        </mxCell>
        <mxCell id="y6a2IPHicbjTbBPUv8F9-278" value="" style="verticalLabelPosition=bottom;html=1;verticalAlign=top;align=center;shape=mxgraph.floorplan.doorLeft;aspect=fixed;direction=south;" vertex="1" parent="1">
          <mxGeometry x="1635" y="200" width="45" height="42.35" as="geometry" />
        </mxCell>
        <mxCell id="y6a2IPHicbjTbBPUv8F9-279" value="" style="verticalLabelPosition=bottom;html=1;verticalAlign=top;align=center;shape=mxgraph.floorplan.wall;fillColor=strokeColor;" vertex="1" parent="1">
          <mxGeometry x="1280" y="483.01" width="400" height="10" as="geometry" />
        </mxCell>
        <mxCell id="y6a2IPHicbjTbBPUv8F9-294" value="" style="verticalLabelPosition=bottom;html=1;verticalAlign=top;align=center;shape=mxgraph.floorplan.office_chair;shadow=0;direction=west;" vertex="1" parent="1">
          <mxGeometry x="1605" y="358.52" width="30" height="38.99" as="geometry" />
        </mxCell>
        <mxCell id="y6a2IPHicbjTbBPUv8F9-295" value="" style="shape=rect;shadow=0;html=1;" vertex="1" parent="1">
          <mxGeometry x="1580" y="331.26" width="80" height="50" as="geometry" />
        </mxCell>
        <mxCell id="y6a2IPHicbjTbBPUv8F9-296" value="" style="verticalLabelPosition=bottom;html=1;verticalAlign=top;align=center;shape=mxgraph.floorplan.workstation;shadow=0;flipV=1;direction=west;" vertex="1" parent="1">
          <mxGeometry x="1600" y="340" width="40" height="36.26" as="geometry" />
        </mxCell>
        <mxCell id="y6a2IPHicbjTbBPUv8F9-299" value="" style="verticalLabelPosition=bottom;html=1;verticalAlign=top;align=center;shape=mxgraph.floorplan.office_chair;shadow=0;direction=west;" vertex="1" parent="1">
          <mxGeometry x="1325" y="362.14" width="30" height="38.99" as="geometry" />
        </mxCell>
        <mxCell id="y6a2IPHicbjTbBPUv8F9-300" value="" style="shape=rect;shadow=0;html=1;" vertex="1" parent="1">
          <mxGeometry x="1300" y="334.88" width="80" height="50" as="geometry" />
        </mxCell>
        <mxCell id="y6a2IPHicbjTbBPUv8F9-301" value="" style="verticalLabelPosition=bottom;html=1;verticalAlign=top;align=center;shape=mxgraph.floorplan.workstation;shadow=0;flipV=1;direction=west;" vertex="1" parent="1">
          <mxGeometry x="1320" y="343.62" width="40" height="36.26" as="geometry" />
        </mxCell>
        <mxCell id="y6a2IPHicbjTbBPUv8F9-302" value="" style="verticalLabelPosition=bottom;html=1;verticalAlign=top;align=center;shape=mxgraph.floorplan.table;" vertex="1" parent="1">
          <mxGeometry x="1380" y="433.01" width="90" height="50" as="geometry" />
        </mxCell>
        <mxCell id="y6a2IPHicbjTbBPUv8F9-303" value="" style="verticalLabelPosition=bottom;html=1;verticalAlign=top;align=center;shape=mxgraph.floorplan.copier;" vertex="1" parent="1">
          <mxGeometry x="1500" y="430" width="80" height="53.01" as="geometry" />
        </mxCell>
        <mxCell id="y6a2IPHicbjTbBPUv8F9-304" value="" style="verticalLabelPosition=bottom;html=1;verticalAlign=top;align=center;shape=mxgraph.floorplan.printer;direction=west;" vertex="1" parent="1">
          <mxGeometry x="1390" y="438.49" width="35" height="41.51" as="geometry" />
        </mxCell>
        <mxCell id="y6a2IPHicbjTbBPUv8F9-305" value="" style="verticalLabelPosition=bottom;html=1;verticalAlign=top;align=center;shape=mxgraph.floorplan.office_chair;shadow=0;" vertex="1" parent="1">
          <mxGeometry x="1370" y="638.38" width="40" height="43" as="geometry" />
        </mxCell>
        <mxCell id="y6a2IPHicbjTbBPUv8F9-306" value="" style="verticalLabelPosition=bottom;html=1;verticalAlign=top;align=center;shape=mxgraph.floorplan.office_chair;shadow=0;direction=west;" vertex="1" parent="1">
          <mxGeometry x="1370" y="735.38" width="40" height="43" as="geometry" />
        </mxCell>
        <mxCell id="y6a2IPHicbjTbBPUv8F9-307" value="" style="verticalLabelPosition=bottom;html=1;verticalAlign=top;align=center;shape=mxgraph.floorplan.office_chair;shadow=0;direction=north;" vertex="1" parent="1">
          <mxGeometry x="1320" y="688.38" width="43" height="40" as="geometry" />
        </mxCell>
        <mxCell id="y6a2IPHicbjTbBPUv8F9-308" value="" style="verticalLabelPosition=bottom;html=1;verticalAlign=top;align=center;shape=mxgraph.floorplan.office_chair;shadow=0;direction=south" vertex="1" parent="1">
          <mxGeometry x="1597" y="688.38" width="43" height="40" as="geometry" />
        </mxCell>
        <mxCell id="y6a2IPHicbjTbBPUv8F9-309" value="" style="verticalLabelPosition=bottom;html=1;verticalAlign=top;align=center;shape=mxgraph.floorplan.office_chair;shadow=0;" vertex="1" parent="1">
          <mxGeometry x="1430" y="638.38" width="36" height="39.75" as="geometry" />
        </mxCell>
        <mxCell id="y6a2IPHicbjTbBPUv8F9-310" value="" style="verticalLabelPosition=bottom;html=1;verticalAlign=top;align=center;shape=mxgraph.floorplan.office_chair;shadow=0;direction=west;" vertex="1" parent="1">
          <mxGeometry x="1430" y="738.13" width="36" height="40.25" as="geometry" />
        </mxCell>
        <mxCell id="y6a2IPHicbjTbBPUv8F9-311" value="" style="verticalLabelPosition=bottom;html=1;verticalAlign=top;align=center;shape=mxgraph.floorplan.office_chair;shadow=0;" vertex="1" parent="1">
          <mxGeometry x="1490" y="638.38" width="40" height="43" as="geometry" />
        </mxCell>
        <mxCell id="y6a2IPHicbjTbBPUv8F9-312" value="" style="verticalLabelPosition=bottom;html=1;verticalAlign=top;align=center;shape=mxgraph.floorplan.office_chair;shadow=0;direction=west;" vertex="1" parent="1">
          <mxGeometry x="1490" y="738.13" width="40" height="40.25" as="geometry" />
        </mxCell>
        <mxCell id="y6a2IPHicbjTbBPUv8F9-313" value="" style="verticalLabelPosition=bottom;html=1;verticalAlign=top;align=center;shape=mxgraph.floorplan.office_chair;shadow=0;" vertex="1" parent="1">
          <mxGeometry x="1550" y="638.38" width="40" height="43" as="geometry" />
        </mxCell>
        <mxCell id="y6a2IPHicbjTbBPUv8F9-314" value="" style="verticalLabelPosition=bottom;html=1;verticalAlign=top;align=center;shape=mxgraph.floorplan.office_chair;shadow=0;direction=west;" vertex="1" parent="1">
          <mxGeometry x="1550" y="735.38" width="40" height="43" as="geometry" />
        </mxCell>
        <mxCell id="y6a2IPHicbjTbBPUv8F9-315" value="" style="shape=ellipse;shadow=0;html=1;" vertex="1" parent="1">
          <mxGeometry x="1340" y="658.38" width="280" height="100" as="geometry" />
        </mxCell>
        <mxCell id="y6a2IPHicbjTbBPUv8F9-316" value="" style="verticalLabelPosition=bottom;html=1;verticalAlign=top;align=center;shape=mxgraph.floorplan.wall;fillColor=strokeColor;direction=south;" vertex="1" parent="1">
          <mxGeometry x="1670" y="631.88" width="10" height="186.25" as="geometry" />
        </mxCell>
        <mxCell id="y6a2IPHicbjTbBPUv8F9-317" value="" style="verticalLabelPosition=bottom;html=1;verticalAlign=top;align=center;shape=mxgraph.floorplan.doorLeft;aspect=fixed;direction=south;" vertex="1" parent="1">
          <mxGeometry x="1635" y="591.88" width="45" height="42.35" as="geometry" />
        </mxCell>
        <mxCell id="y6a2IPHicbjTbBPUv8F9-318" value="" style="verticalLabelPosition=bottom;html=1;verticalAlign=top;align=center;shape=mxgraph.floorplan.wall;fillColor=strokeColor;" vertex="1" parent="1">
          <mxGeometry x="1280" y="808.14" width="390" height="10" as="geometry" />
        </mxCell>
        <mxCell id="y6a2IPHicbjTbBPUv8F9-320" value="" style="verticalLabelPosition=bottom;html=1;verticalAlign=top;align=center;shape=mxgraph.floorplan.doorBypass;dx=0.25;" vertex="1" parent="1">
          <mxGeometry x="1680" y="808.14" width="100" height="9.99" as="geometry" />
        </mxCell>
        <mxCell id="y6a2IPHicbjTbBPUv8F9-321" value="" style="verticalLabelPosition=bottom;html=1;verticalAlign=top;align=center;shape=mxgraph.floorplan.doorBypass;dx=0.25;direction=south;" vertex="1" parent="1">
          <mxGeometry x="1780" y="840" width="10" height="80" as="geometry" />
        </mxCell>
        <mxCell id="y6a2IPHicbjTbBPUv8F9-323" value="" style="verticalLabelPosition=bottom;html=1;verticalAlign=top;align=center;shape=mxgraph.floorplan.wall;fillColor=strokeColor;" vertex="1" parent="1">
          <mxGeometry x="1280" y="581.88" width="400" height="10" as="geometry" />
        </mxCell>
        <mxCell id="y6a2IPHicbjTbBPUv8F9-324" value="" style="verticalLabelPosition=bottom;html=1;verticalAlign=top;align=center;shape=mxgraph.floorplan.doorLeft;aspect=fixed;direction=south;" vertex="1" parent="1">
          <mxGeometry x="1635" y="493.01000000000005" width="45" height="42.35" as="geometry" />
        </mxCell>
        <mxCell id="y6a2IPHicbjTbBPUv8F9-325" value="" style="verticalLabelPosition=bottom;html=1;verticalAlign=top;align=center;shape=mxgraph.floorplan.wall;fillColor=strokeColor;direction=south;" vertex="1" parent="1">
          <mxGeometry x="1670" y="535.36" width="10" height="44.64" as="geometry" />
        </mxCell>
        <mxCell id="y6a2IPHicbjTbBPUv8F9-328" value="" style="whiteSpace=wrap;html=1;aspect=fixed;" vertex="1" parent="1">
          <mxGeometry x="1790" y="420" width="80" height="80" as="geometry" />
        </mxCell>
        <mxCell id="y6a2IPHicbjTbBPUv8F9-330" value="" style="rounded=0;whiteSpace=wrap;html=1;" vertex="1" parent="1">
          <mxGeometry x="1290" y="506.26" width="40" height="60" as="geometry" />
        </mxCell>
        <mxCell id="y6a2IPHicbjTbBPUv8F9-331" value="" style="verticalLabelPosition=bottom;html=1;verticalAlign=top;align=center;shape=mxgraph.floorplan.chair;shadow=0;" vertex="1" parent="1">
          <mxGeometry x="1360" y="850" width="40" height="52" as="geometry" />
        </mxCell>
        <mxCell id="y6a2IPHicbjTbBPUv8F9-332" value="" style="verticalLabelPosition=bottom;html=1;verticalAlign=top;align=center;shape=mxgraph.floorplan.chair;shadow=0;direction=west;" vertex="1" parent="1">
          <mxGeometry x="1360" y="938" width="40" height="52" as="geometry" />
        </mxCell>
        <mxCell id="y6a2IPHicbjTbBPUv8F9-333" value="" style="verticalLabelPosition=bottom;html=1;verticalAlign=top;align=center;shape=mxgraph.floorplan.chair;shadow=0;direction=north;" vertex="1" parent="1">
          <mxGeometry x="1310" y="900" width="52" height="40" as="geometry" />
        </mxCell>
        <mxCell id="y6a2IPHicbjTbBPUv8F9-334" value="" style="verticalLabelPosition=bottom;html=1;verticalAlign=top;align=center;shape=mxgraph.floorplan.chair;shadow=0;direction=south" vertex="1" parent="1">
          <mxGeometry x="1398" y="900" width="52" height="40" as="geometry" />
        </mxCell>
        <mxCell id="y6a2IPHicbjTbBPUv8F9-335" value="" style="shape=rect;shadow=0;html=1;" vertex="1" parent="1">
          <mxGeometry x="1330" y="870" width="100" height="100" as="geometry" />
        </mxCell>
        <mxCell id="y6a2IPHicbjTbBPUv8F9-336" value="" style="verticalLabelPosition=bottom;html=1;verticalAlign=top;align=center;shape=mxgraph.floorplan.chair;shadow=0;" vertex="1" parent="1">
          <mxGeometry x="1530" y="894" width="40" height="52" as="geometry" />
        </mxCell>
        <mxCell id="y6a2IPHicbjTbBPUv8F9-337" value="" style="verticalLabelPosition=bottom;html=1;verticalAlign=top;align=center;shape=mxgraph.floorplan.chair;shadow=0;direction=west;" vertex="1" parent="1">
          <mxGeometry x="1530" y="982" width="40" height="52" as="geometry" />
        </mxCell>
        <mxCell id="y6a2IPHicbjTbBPUv8F9-338" value="" style="verticalLabelPosition=bottom;html=1;verticalAlign=top;align=center;shape=mxgraph.floorplan.chair;shadow=0;direction=north;" vertex="1" parent="1">
          <mxGeometry x="1480" y="944" width="52" height="40" as="geometry" />
        </mxCell>
        <mxCell id="y6a2IPHicbjTbBPUv8F9-339" value="" style="verticalLabelPosition=bottom;html=1;verticalAlign=top;align=center;shape=mxgraph.floorplan.chair;shadow=0;direction=south" vertex="1" parent="1">
          <mxGeometry x="1568" y="944" width="52" height="40" as="geometry" />
        </mxCell>
        <mxCell id="y6a2IPHicbjTbBPUv8F9-340" value="" style="shape=rect;shadow=0;html=1;" vertex="1" parent="1">
          <mxGeometry x="1500" y="914" width="100" height="100" as="geometry" />
        </mxCell>
        <mxCell id="y6a2IPHicbjTbBPUv8F9-341" value="" style="verticalLabelPosition=bottom;html=1;verticalAlign=top;align=center;shape=mxgraph.floorplan.refrigerator;direction=north;" vertex="1" parent="1">
          <mxGeometry x="1280" y="1060" width="62" height="60" as="geometry" />
        </mxCell>
        <mxCell id="y6a2IPHicbjTbBPUv8F9-342" value="" style="verticalLabelPosition=bottom;html=1;verticalAlign=top;align=center;shape=mxgraph.floorplan.sink_double2;direction=west;" vertex="1" parent="1">
          <mxGeometry x="1690" y="1085" width="90" height="35" as="geometry" />
        </mxCell>
        <mxCell id="y6a2IPHicbjTbBPUv8F9-343" value="" style="verticalLabelPosition=bottom;html=1;verticalAlign=top;align=center;shape=mxgraph.floorplan.shower2;" vertex="1" parent="1">
          <mxGeometry x="2405" y="1030" width="30" height="35.01" as="geometry" />
        </mxCell>
        <mxCell id="y6a2IPHicbjTbBPUv8F9-344" value="" style="verticalLabelPosition=bottom;html=1;verticalAlign=top;align=center;shape=mxgraph.floorplan.shower2;" vertex="1" parent="1">
          <mxGeometry x="1750" y="1010" width="30" height="35.01" as="geometry" />
        </mxCell>
        <mxCell id="y6a2IPHicbjTbBPUv8F9-345" value="" style="verticalLabelPosition=bottom;html=1;verticalAlign=top;align=center;shape=mxgraph.floorplan.range_1;direction=south;" vertex="1" parent="1">
          <mxGeometry x="1718" y="934" width="62" height="50" as="geometry" />
        </mxCell>
        <mxCell id="y6a2IPHicbjTbBPUv8F9-346" value="" style="rounded=1;whiteSpace=wrap;html=1;" vertex="1" parent="1">
          <mxGeometry x="1570" y="1085" width="120" height="35" as="geometry" />
        </mxCell>
      </root>
    </mxGraphModel>
  </diagram>
</mxfile>
